<svg width="834" height="514" viewBox="0 0 834 514" fill="none" xmlns="http://www.w3.org/2000/svg">
<rect width="834" height="514" fill="#1C4965"/>
<rect width="834" height="244.762" fill="#F8F9FD"/>
<g filter="url(#filter0_d)">
<rect x="40.1934" y="52.625" width="369.271" height="392.843" fill="white"/>
</g>
<g filter="url(#filter1_d)">
<g clip-path="url(#clip0)">
<path d="M295.993 258.583L298.542 256.795C298.785 256.62 299.024 256.434 299.269 256.259C293.802 255.191 288.819 252.032 285.147 247.307C281.474 242.581 279.331 236.572 279.073 230.273C278.886 225.942 279.606 221.622 281.175 217.668C282.636 213.97 284.793 210.68 287.495 208.032C290.196 205.383 293.375 203.441 296.809 202.341L296.682 213.743L302.194 201.332C302.216 201.328 302.239 201.328 302.262 201.332C305.456 201.163 308.648 201.71 311.656 202.942C314.663 204.175 317.428 206.069 319.792 208.516C322.155 210.963 324.072 213.915 325.432 217.203C326.792 220.492 327.568 224.053 327.717 227.683C327.737 228.21 327.717 228.73 327.717 229.234C329.635 226.748 331.375 224.083 332.529 221.163C334.863 215.248 334.918 208.55 334.723 200.409C334.355 184.275 333.744 168.02 332.945 151.812C327.191 151.085 321.853 148.051 317.89 143.253C313.927 138.455 311.6 132.209 311.326 125.636C311.292 124.786 311.302 123.953 311.326 123.123C311.326 122.917 311.326 122.708 311.353 122.502C311.401 121.699 311.466 120.904 311.575 120.121C311.575 119.989 311.616 119.865 311.637 119.733C311.737 119.068 311.856 118.412 311.995 117.763C312.05 117.522 312.101 117.278 312.159 117.037C312.329 116.331 312.5 115.637 312.736 114.951C312.807 114.722 312.892 114.501 312.968 114.276C313.142 113.772 313.329 113.275 313.527 112.783C313.633 112.523 313.735 112.267 313.848 112.007C313.875 111.941 313.899 111.875 313.93 111.809C316.499 106.041 320.766 101.479 325.988 98.9152C331.21 96.3516 337.058 95.9487 342.514 97.7767L342.35 112.616L347.811 100.36C352.289 103.273 355.831 107.738 357.919 113.102C360.006 118.466 360.53 124.448 359.414 130.174H359.441C359.403 130.371 359.349 130.562 359.308 130.755C359.233 131.12 359.151 131.481 359.062 131.841C358.946 132.303 358.816 132.757 358.683 133.211C358.581 133.548 358.482 133.893 358.369 134.227C358.206 134.715 358.028 135.192 357.83 135.669C357.721 135.949 357.622 136.232 357.489 136.507C357.177 137.221 356.836 137.919 356.465 138.602C356.339 138.838 356.195 139.063 356.062 139.3C355.803 139.757 355.54 140.211 355.257 140.653C355.083 140.925 354.895 141.185 354.711 141.452C354.445 141.84 354.172 142.228 353.889 142.581C353.687 142.841 353.482 143.097 353.271 143.357C352.974 143.713 352.667 144.059 352.349 144.4C352.141 144.629 351.93 144.858 351.711 145.075C351.353 145.436 350.978 145.781 350.599 146.118C350.408 146.289 350.223 146.467 350.025 146.63C349.45 147.116 348.855 147.573 348.241 147.999C348.125 148.077 348.002 148.143 347.899 148.22C347.387 148.565 346.876 148.887 346.326 149.19C346.097 149.318 345.859 149.43 345.623 149.551C345.183 149.776 344.739 149.993 344.285 150.191C344.023 150.303 343.753 150.408 343.483 150.512C343.036 150.687 342.582 150.846 342.118 150.989C341.845 151.075 341.576 151.16 341.299 151.234C340.801 151.37 340.293 151.482 339.781 151.579C339.747 151.579 339.716 151.579 339.682 151.602C340.018 158.439 340.318 165.279 340.579 172.123C342.031 168.737 344.076 165.723 346.589 163.267C349.102 160.811 352.03 158.964 355.194 157.84C358.357 156.716 361.69 156.338 364.986 156.73C368.283 157.122 371.474 158.276 374.364 160.119L370.061 173.52L378.913 163.858C383.652 168.795 386.475 175.665 386.763 182.964C386.875 185.525 386.667 188.091 386.145 190.585C385.033 195.983 382.519 200.876 378.93 204.63C375.34 208.385 370.841 210.826 366.016 211.639C361.191 212.451 356.262 211.597 351.869 209.186C347.476 206.776 343.822 202.921 341.381 198.121C341.381 198.815 341.426 199.513 341.443 200.207C341.603 207.39 341.804 216.326 338.654 224.308C336.522 229.719 333.085 234.113 329.689 238.05C327.482 240.614 325.192 243.092 322.844 245.493C320.535 249.016 317.522 251.863 314.053 253.8C310.196 257.177 306.204 260.339 302.074 263.287L299.566 265.126C297.249 266.758 294.874 268.434 292.543 270.168C292.952 270.121 293.359 270.071 293.775 270.051C298.934 269.776 304.037 271.373 308.346 274.61C312.654 277.847 315.946 282.557 317.745 288.059L302.532 302.134L319.254 297.724C319.249 302.403 318.201 307.004 316.207 311.098C314.214 315.192 311.34 318.644 307.853 321.133C304.367 323.622 300.383 325.066 296.272 325.33C292.162 325.594 288.06 324.67 284.349 322.643C284.725 323.179 285.103 323.71 285.479 324.241C286.226 325.3 286.97 326.351 287.697 327.395C297.594 341.64 300.351 355.168 295.447 365.481L289.489 361.82C294.266 351.783 287.1 338.937 282.38 332.165C281.667 331.141 280.937 330.11 280.199 329.062C273.876 320.142 266.709 310.011 266.89 297.596C267.146 278.902 283.148 267.627 295.993 258.583Z" fill="#F2F2F2"/>
<path d="M218.247 369.594C304.097 369.594 373.692 365.948 373.692 361.45C373.692 356.951 304.097 353.305 218.247 353.305C132.396 353.305 62.8008 356.951 62.8008 361.45C62.8008 365.948 132.396 369.594 218.247 369.594Z" fill="#3F3D56"/>
<path d="M343.828 358.409C344.852 356.272 343.692 353.654 342.368 351.746C341.043 349.838 339.429 347.868 339.463 345.428C339.511 341.937 342.77 339.878 345.378 338.028C347.308 336.654 349.089 335.025 350.684 333.176C351.353 332.464 351.907 331.624 352.319 330.694C352.855 329.328 352.841 327.777 352.807 326.28C352.693 321.3 352.477 316.325 352.158 311.355" stroke="#3F3D56" stroke-width="4" stroke-miterlimit="10"/>
<path d="M357.112 311.095C357.074 310.184 356.835 309.298 356.418 308.519C356 307.74 355.418 307.092 354.723 306.635L353.651 309.047L353.682 306.131C352.949 305.881 352.174 305.835 351.422 305.997C350.671 306.159 349.964 306.523 349.362 307.06C348.76 307.597 348.28 308.29 347.963 309.081C347.646 309.872 347.501 310.739 347.539 311.607C347.599 313.047 348.16 314.401 349.098 315.372C349.563 315.852 350.106 316.224 350.697 316.466C351.288 316.708 351.915 316.815 352.542 316.781C353.17 316.747 353.785 316.574 354.353 316.27C354.922 315.966 355.432 315.538 355.855 315.01C356.277 314.482 356.604 313.864 356.817 313.193C357.03 312.521 357.124 311.808 357.095 311.095H357.112Z" fill="#57B793"/>
<path d="M348.569 347.943C348.067 349.05 347.246 349.927 346.243 350.428C345.24 350.929 344.115 351.023 343.059 350.694C342.002 350.365 341.077 349.634 340.438 348.622C339.8 347.61 339.486 346.379 339.551 345.136C339.616 343.893 340.055 342.713 340.794 341.794C341.534 340.875 342.528 340.272 343.612 340.087C344.696 339.903 345.802 340.147 346.746 340.779C347.69 341.411 348.414 342.393 348.797 343.56L345.808 346.325L349.097 345.456C349.098 346.321 348.917 347.174 348.569 347.943V347.943Z" fill="#57B793"/>
<path d="M346.204 337.354C345.576 337.388 344.948 337.281 344.356 337.039C343.764 336.797 343.22 336.424 342.755 335.942C342.29 335.46 341.914 334.879 341.647 334.231C341.38 333.584 341.229 332.883 341.201 332.168C341.163 331.317 341.305 330.467 341.614 329.69C341.901 328.962 342.325 328.315 342.855 327.794C343.386 327.273 344.011 326.89 344.686 326.672L344.662 328.918L345.747 326.475C347.016 326.407 348.257 326.916 349.197 327.888C350.136 328.861 350.697 330.218 350.757 331.66C350.816 333.103 350.369 334.513 349.513 335.581C348.657 336.649 347.463 337.286 346.194 337.354H346.204Z" fill="#57B793"/>
<path d="M357.83 328.546C356.563 328.614 355.324 328.107 354.386 327.137C353.448 326.166 352.887 324.812 352.828 323.372C352.768 321.932 353.214 320.524 354.068 319.458C354.921 318.391 356.113 317.754 357.38 317.686C358.276 317.636 359.166 317.875 359.946 318.377L359.1 321.014L360.84 319.114C361.774 320.084 362.332 321.435 362.39 322.872C362.412 323.375 362.37 323.879 362.267 324.369C362.028 325.519 361.466 326.549 360.665 327.303C359.864 328.057 358.869 328.493 357.83 328.546V328.546Z" fill="#57B793"/>
<path opacity="0.1" d="M356.464 312.529C355.358 312.668 354.283 313.06 353.174 313.137C352.065 313.215 350.847 312.912 350.144 311.931C349.765 311.404 349.577 310.737 349.256 310.163C348.954 309.626 348.541 309.183 348.052 308.871C347.763 309.558 347.604 310.305 347.586 311.066C347.567 311.827 347.69 312.584 347.946 313.287C348.201 313.99 348.584 314.625 349.069 315.149C349.555 315.674 350.132 316.076 350.763 316.331C351.394 316.586 352.065 316.687 352.732 316.628C353.4 316.569 354.049 316.351 354.638 315.988C355.227 315.626 355.742 315.127 356.15 314.523C356.558 313.92 356.85 313.226 357.007 312.486C356.822 312.494 356.641 312.509 356.464 312.529Z" fill="black"/>
<path opacity="0.1" d="M357.83 328.546C357.004 328.594 356.182 328.397 355.443 327.975C354.704 327.552 354.074 326.92 353.614 326.138C353.155 325.356 352.883 324.452 352.823 323.514C352.763 322.577 352.919 321.638 353.274 320.789C353.655 321.081 353.981 321.454 354.237 321.887C354.578 322.472 354.783 323.147 355.186 323.686C355.93 324.683 357.206 325.009 358.363 324.947C359.52 324.885 360.632 324.516 361.775 324.396C361.932 324.396 362.096 324.365 362.257 324.361C362.02 325.511 361.459 326.541 360.66 327.296C359.862 328.052 358.868 328.49 357.83 328.546Z" fill="black"/>
<path opacity="0.1" d="M346.204 337.355C345.576 337.39 344.948 337.283 344.356 337.04C343.764 336.798 343.22 336.425 342.755 335.944C342.29 335.462 341.914 334.88 341.647 334.233C341.38 333.585 341.229 332.884 341.201 332.17C341.163 331.318 341.305 330.468 341.614 329.691C342.011 329.987 342.358 330.361 342.638 330.797C343.01 331.394 343.242 332.081 343.662 332.631C344.471 333.655 345.829 334.016 347.054 333.981C348.279 333.946 349.381 333.62 350.562 333.519C350.271 334.59 349.696 335.533 348.916 336.22C348.136 336.906 347.19 337.302 346.204 337.355Z" fill="black"/>
<path opacity="0.1" d="M348.57 347.941C348.312 348.592 347.944 349.18 347.486 349.67C347.029 350.16 346.491 350.543 345.903 350.797C345.315 351.05 344.69 351.17 344.061 351.149C343.433 351.128 342.814 350.966 342.241 350.673C341.667 350.38 341.15 349.962 340.719 349.442C340.288 348.922 339.951 348.311 339.728 347.643C339.505 346.975 339.399 346.263 339.418 345.549C339.437 344.835 339.579 344.132 339.837 343.48C340.23 343.777 340.584 344.137 340.888 344.547C341.342 345.179 341.642 345.893 342.171 346.486C343.15 347.576 344.73 348.038 346.136 348.069C346.949 348.081 347.761 348.038 348.57 347.941V347.941Z" fill="black"/>
<path d="M336.607 355.948C336.607 355.948 340.385 355.816 341.525 354.893C342.665 353.97 347.327 352.868 347.623 354.35C347.92 355.831 353.305 361.719 349.036 361.742C344.767 361.765 339.119 360.966 337.983 360.191C336.846 359.415 336.607 355.948 336.607 355.948Z" fill="#656380"/>
<path opacity="0.2" d="M349.111 361.228C344.846 361.267 339.194 360.452 338.058 359.676C337.194 359.079 336.846 356.926 336.734 355.934H336.607C336.607 355.934 336.846 359.397 337.972 360.2C339.099 361.003 344.757 361.782 349.026 361.751C350.258 361.751 350.685 361.239 350.661 360.502C350.5 360.941 350.029 361.22 349.111 361.228Z" fill="black"/>
<path d="M129.145 346.444C126.667 341.232 129.486 334.848 132.708 330.201C135.929 325.555 139.874 320.722 139.789 314.8C139.666 306.29 131.722 301.268 125.374 296.757C120.664 293.41 116.319 289.44 112.43 284.932C110.87 283.12 109.358 281.189 108.451 278.877C107.14 275.55 107.174 271.768 107.26 268.122C107.533 255.97 108.061 243.84 108.843 231.734" stroke="#3F3D56" stroke-width="4" stroke-miterlimit="10"/>
<path d="M96.7746 231.072C96.868 228.852 97.4507 226.694 98.4692 224.796C99.4876 222.899 100.909 221.322 102.603 220.212L105.217 226.088L105.139 218.975C107.514 218.179 110.05 218.263 112.38 219.212C114.711 220.161 116.716 221.928 118.105 224.257C119.495 226.586 120.197 229.356 120.111 232.168C120.025 234.98 119.154 237.688 117.625 239.901C116.096 242.115 113.988 243.718 111.605 244.481C109.222 245.244 106.687 245.126 104.367 244.145C102.047 243.163 100.061 241.369 98.6961 239.022C97.3314 236.674 96.6585 233.894 96.7746 231.083V231.072Z" fill="#57B793"/>
<path d="M117.599 320.882C118.773 323.482 120.669 325.569 122.994 326.818C125.319 328.067 127.942 328.409 130.455 327.79C132.968 327.171 135.231 325.626 136.892 323.395C138.553 321.164 139.52 318.371 139.641 315.452C139.722 313.617 139.463 311.783 138.88 310.069C138.027 307.555 136.522 305.396 134.563 303.878C132.605 302.36 130.286 301.555 127.916 301.571C125.545 301.586 123.235 302.421 121.292 303.965C119.349 305.508 117.866 307.687 117.039 310.212L124.332 316.953L116.309 314.832C116.305 316.937 116.748 319.012 117.599 320.882Z" fill="#57B793"/>
<path d="M123.362 295.122C126.225 295.27 129.036 294.217 131.26 292.163C133.484 290.109 134.966 287.197 135.423 283.981C135.881 280.766 135.282 277.471 133.74 274.725C132.199 271.979 129.823 269.973 127.064 269.089L127.126 274.554L124.498 268.608H124.467C121.373 268.444 118.349 269.684 116.059 272.054C113.769 274.425 112.401 277.732 112.257 281.248C112.112 284.765 113.203 288.202 115.289 290.805C117.375 293.407 120.285 294.961 123.379 295.125L123.362 295.122Z" fill="#57B793"/>
<path d="M95.016 273.689C96.8237 273.789 98.6272 273.41 100.284 272.582C101.941 271.754 103.406 270.5 104.563 268.919C105.72 267.337 106.538 265.472 106.952 263.469C107.367 261.467 107.366 259.383 106.949 257.381C106.533 255.379 105.713 253.514 104.555 251.934C103.396 250.354 101.93 249.102 100.272 248.276C98.6144 247.451 96.8105 247.074 95.0029 247.177C93.1952 247.279 91.4333 247.858 89.8561 248.866L91.9036 255.293L87.6754 250.651C86.5451 251.82 85.6287 253.23 84.9787 254.802C84.3287 256.374 83.9578 258.077 83.8874 259.812C83.8332 261.039 83.9331 262.269 84.1843 263.465C84.7647 266.277 86.1365 268.796 88.0914 270.642C90.0463 272.487 92.4775 273.557 95.016 273.689V273.689Z" fill="#57B793"/>
<path opacity="0.1" d="M98.3441 234.612C101.04 234.949 103.661 235.9 106.364 236.09C109.067 236.28 112.039 235.547 113.749 233.158C114.67 231.87 115.131 230.241 115.909 228.837C116.646 227.529 117.657 226.448 118.851 225.691C119.594 227.373 120.014 229.216 120.083 231.096C120.152 232.977 119.869 234.852 119.251 236.599C118.634 238.345 117.696 239.922 116.501 241.225C115.306 242.528 113.881 243.528 112.321 244.157C110.76 244.787 109.099 245.032 107.449 244.876C105.799 244.72 104.196 244.167 102.748 243.254C101.3 242.341 100.04 241.088 99.0503 239.578C98.061 238.069 97.3654 236.338 97.0098 234.499C97.4636 234.523 97.9073 234.558 98.3441 234.612Z" fill="black"/>
<path opacity="0.1" d="M95.0153 273.685C97.0276 273.79 99.0296 273.303 100.827 272.269C102.625 271.236 104.157 269.692 105.274 267.788C106.392 265.883 107.058 263.683 107.206 261.4C107.355 259.117 106.982 256.829 106.123 254.758C105.196 255.466 104.399 256.373 103.776 257.426C102.943 258.853 102.441 260.502 101.462 261.813C99.6429 264.241 96.5374 265.036 93.7185 264.892C90.8997 264.749 88.1798 263.833 85.3746 263.543C84.9856 263.504 84.5897 263.473 84.1973 263.461C84.7771 266.27 86.1468 268.788 88.099 270.633C90.0511 272.478 92.4792 273.549 95.0153 273.685V273.685Z" fill="black"/>
<path opacity="0.1" d="M123.361 295.124C125.353 295.23 127.337 294.755 129.122 293.742C130.907 292.73 132.433 291.215 133.557 289.341C134.68 287.468 135.362 285.298 135.538 283.04C135.714 280.782 135.377 278.51 134.561 276.441C133.6 277.167 132.763 278.088 132.094 279.156C131.186 280.611 130.62 282.286 129.558 283.628C127.589 286.122 124.279 287.002 121.293 286.921C118.402 286.851 115.618 286.045 112.744 285.792C113.456 288.399 114.856 290.694 116.756 292.363C118.656 294.033 120.962 294.997 123.361 295.124V295.124Z" fill="black"/>
<path opacity="0.1" d="M117.598 320.884C118.772 323.484 120.668 325.571 122.993 326.82C125.318 328.069 127.941 328.41 130.454 327.791C132.967 327.172 135.23 325.627 136.891 323.396C138.552 321.165 139.519 318.373 139.64 315.454C139.721 313.618 139.462 311.784 138.879 310.07C137.918 310.788 137.056 311.662 136.319 312.665C135.21 314.216 134.477 315.946 133.193 317.381C130.805 320.042 126.952 321.143 123.522 321.26C121.542 321.268 119.564 321.142 117.598 320.884V320.884Z" fill="black"/>
<path d="M209.96 354.196L164.913 364.668L163.889 364.551L124.303 360.013V303L172.762 293.691L207.912 298.346L207.923 298.598L207.926 298.722L209.96 354.196Z" fill="#6C63FF"/>
<path opacity="0.1" d="M209.959 354.196L164.912 364.668L163.889 364.551V306.103L207.922 298.598L209.959 354.196Z" fill="black"/>
<path opacity="0.05" d="M207.926 298.722L207.912 298.733L163.889 306.103L124.303 303L172.762 293.691L207.912 298.346L207.923 298.598L207.926 298.722Z" fill="black"/>
<path d="M259.444 356.524L214.398 366.996L213.374 366.879L173.787 362.342V305.328L222.247 296.02L257.397 300.674L257.407 300.926L257.41 301.05L259.444 356.524Z" fill="#3F3D56"/>
<path opacity="0.1" d="M259.444 356.524L214.397 366.996L213.373 366.879V308.431L257.406 300.926L259.444 356.524Z" fill="black"/>
<path opacity="0.05" d="M257.411 301.05L257.397 301.062L213.374 308.431L173.787 305.328L222.247 296.02L257.397 300.674L257.407 300.926L257.411 301.05Z" fill="black"/>
<path d="M228.388 300.672L183.341 311.144L182.317 311.028L142.73 306.49V249.476L191.19 240.168L226.34 244.822L226.35 245.074L226.354 245.198L228.388 300.672Z" fill="#3F3D56"/>
<path opacity="0.1" d="M228.389 300.672L183.342 311.144L182.318 311.028V252.579L226.352 245.074L228.389 300.672Z" fill="black"/>
<path opacity="0.05" d="M226.354 245.198L226.34 245.21L182.317 252.579L142.73 249.476L191.19 240.168L226.34 244.822L226.35 245.074L226.354 245.198Z" fill="black"/>
<path d="M253.983 303.063L230.473 308.532L229.937 308.47L209.277 306.1V276.344L234.568 271.484L252.915 273.916L252.922 274.048V274.11L253.983 303.063Z" fill="#3F3D56"/>
<path opacity="0.1" d="M253.983 303.062L230.473 308.531L229.938 308.468V277.964L252.922 274.047L253.983 303.062Z" fill="black"/>
<path opacity="0.05" d="M252.922 274.11L252.915 274.118L229.937 277.965L209.277 276.344L234.568 271.484L252.915 273.916L252.922 274.048V274.11Z" fill="black"/>
<path d="M190.85 245.27L167.34 250.735L166.805 250.677L146.145 248.307V218.551L171.436 213.691L189.782 216.123L189.789 216.255V216.317L190.85 245.27Z" fill="#3F3D56"/>
<path opacity="0.1" d="M190.85 245.273L167.34 250.738L166.805 250.679V220.175L189.789 216.258L190.85 245.273Z" fill="black"/>
<path opacity="0.05" d="M189.789 216.317L189.782 216.325L166.805 220.172L146.145 218.551L171.436 213.691L189.782 216.123L189.789 216.255V216.317Z" fill="black"/>
<path d="M232.143 244.106L208.633 249.571L208.098 249.513L187.438 247.143V217.387L212.729 212.527L231.075 214.959L231.082 215.091V215.153L232.143 244.106Z" fill="#6C63FF"/>
<path opacity="0.1" d="M232.143 244.109L208.633 249.573L208.098 249.515V219.011L231.082 215.094L232.143 244.109Z" fill="black"/>
<path opacity="0.05" d="M231.082 215.153L231.075 215.161L208.098 219.008L187.438 217.387L212.729 212.527L231.075 214.959L231.082 215.091V215.153Z" fill="black"/>
<path d="M244.428 214.243L220.919 219.707L220.383 219.649L199.723 217.28V187.524L225.014 182.664L243.36 185.096L243.367 185.228V185.29L244.428 214.243Z" fill="#3F3D56"/>
<path opacity="0.1" d="M244.428 214.241L220.919 219.706L220.383 219.648V189.144L243.367 185.227L244.428 214.241Z" fill="black"/>
<path opacity="0.05" d="M243.367 185.29L243.36 185.298L220.383 189.145L199.723 187.524L225.014 182.664L243.36 185.096L243.367 185.228V185.29Z" fill="black"/>
<path d="M260.44 153.412C260.191 155.933 258.498 157.965 257.87 160.393C256.929 164.058 258.553 167.995 260.792 170.865C262.596 173.146 264.78 174.996 267.218 176.311C269.656 177.625 272.3 178.376 274.995 178.521C275.787 178.599 276.584 178.5 277.343 178.23C278.018 177.918 278.627 177.444 279.128 176.842C280.807 174.922 281.711 172.265 282.069 169.585C282.428 166.905 282.291 164.179 282.151 161.475C282.151 160.916 282.061 160.361 281.885 159.839C281.657 159.342 281.342 158.902 280.96 158.547C279.75 157.283 278.416 156.181 276.985 155.262C276.37 154.874 275.712 154.486 275.319 153.815C275.05 153.281 274.875 152.692 274.804 152.082L274.364 149.537C274.286 148.804 274.066 148.099 273.719 147.474C272.944 146.287 271.46 146.124 270.159 146.066L265.382 145.853C263.897 145.787 261.945 145.302 260.495 145.636C259.13 145.942 259.59 147.362 259.836 148.649C260.192 150.207 260.394 151.804 260.44 153.412V153.412Z" fill="#FFC0C6"/>
<path opacity="0.1" d="M260.44 153.412C260.191 155.933 258.498 157.965 257.87 160.393C256.929 164.058 258.553 167.995 260.792 170.865C262.596 173.146 264.78 174.996 267.218 176.311C269.656 177.625 272.3 178.376 274.995 178.521C275.787 178.599 276.584 178.5 277.343 178.23C278.018 177.918 278.627 177.444 279.128 176.842C280.807 174.922 281.711 172.265 282.069 169.585C282.428 166.905 282.291 164.179 282.151 161.475C282.151 160.916 282.061 160.361 281.885 159.839C281.657 159.342 281.342 158.902 280.96 158.547C279.75 157.283 278.416 156.181 276.985 155.262C276.37 154.874 275.712 154.486 275.319 153.815C275.05 153.281 274.875 152.692 274.804 152.082L274.364 149.537C274.286 148.804 274.066 148.099 273.719 147.474C272.944 146.287 271.46 146.124 270.159 146.066L265.382 145.853C263.897 145.787 261.945 145.302 260.495 145.636C259.13 145.942 259.59 147.362 259.836 148.649C260.192 150.207 260.394 151.804 260.44 153.412V153.412Z" fill="black"/>
<path d="M290.783 266.958L288.755 292.215C288.226 298.84 287.687 305.491 286.65 312.03C286.309 314.284 285.872 316.525 285.373 318.748C283.988 324.918 281.978 330.95 281.33 337.275C281.309 337.458 281.292 337.663 281.275 337.83C281.142 339.226 281.026 340.638 280.592 341.941C280.251 342.907 279.77 343.787 279.418 344.741C278.736 346.65 278.627 348.76 278.541 350.827C276.081 349.248 273.387 348.197 270.593 347.724C269.228 347.495 267.744 347.336 266.839 346.173C265.816 344.908 265.935 342.973 266.106 341.274C266.643 335.999 267.177 330.727 267.71 325.458C267.887 323.19 268.23 320.943 268.733 318.74C268.918 318.007 269.14 317.286 269.365 316.564C269.675 315.571 269.989 314.578 270.225 313.558C270.551 311.92 270.777 310.257 270.9 308.582C271.45 303.277 272.112 297.982 272.692 292.681L272.723 292.401C273.593 284.365 274.255 276.29 274.064 268.196C274.037 266.997 273.992 265.799 273.924 264.596C273.829 262.855 273.689 261.932 274.948 260.842C276.35 259.64 278.197 258.798 279.801 258.011C280.664 257.584 290.172 253.744 290.38 254.59C290.821 256.386 291.051 258.241 291.062 260.105C291.082 262.394 290.988 264.682 290.783 266.958V266.958Z" fill="#605D82"/>
<path opacity="0.1" d="M286.649 312.031C286.308 314.285 285.871 316.527 285.373 318.749C283.987 324.92 281.977 330.951 281.329 337.276C281.308 337.459 281.291 337.664 281.274 337.831C277.036 330.951 273.466 323.55 269.33 316.596C269.641 315.603 269.955 314.611 270.19 313.59C270.529 311.942 270.767 310.269 270.9 308.583C271.449 303.278 272.111 297.983 272.692 292.682L272.722 292.402C272.962 293.527 273.305 294.621 273.746 295.664C276.524 302.079 283.124 305.322 286.352 311.461C286.459 311.653 286.558 311.843 286.649 312.031Z" fill="black"/>
<path d="M252.257 255.633C252.397 260.776 253.121 265.876 253.844 270.957L255.335 281.429C256.151 287.169 257.004 293.022 259.393 298.161C261.181 302.008 263.754 305.289 266.085 308.737C271.812 317.216 276.115 326.823 281.544 335.549C283.125 338.086 285.38 340.832 288.073 340.3C289.841 339.955 291.124 338.28 292.509 336.992C294.147 335.472 296.12 334.359 297.41 332.45C298.7 330.542 298.952 327.377 297.205 326.02C296.608 325.558 295.881 325.384 295.205 325.089C292.499 323.925 290.745 320.916 289.632 317.875C288.52 314.834 287.841 311.572 286.356 308.745C283.128 302.605 276.525 299.363 273.747 292.944C272.19 289.353 272.04 285.187 271.924 281.204L271.621 271C271.586 269.883 271.563 268.723 271.962 267.703C273.023 264.988 276.231 264.732 278.831 264.387C281.78 263.995 284.637 262.972 287.25 261.369C288.749 260.45 290.209 259.279 291.004 257.572C291.735 256.021 291.834 254.194 291.919 252.433L292.82 233.937C292.898 232.347 292.967 230.698 292.479 229.209C291.24 225.462 287.076 224.237 283.558 224.415C277.013 224.749 270.972 227.948 264.788 230.113C263.256 230.648 261.717 231.129 260.137 231.49C258.772 231.804 257.066 231.676 255.755 232.18C253.407 233.08 253.465 238.921 253.134 241.341C252.451 246.064 252.158 250.848 252.257 255.633V255.633Z" fill="#605D82"/>
<path d="M287.186 341.082C287.763 341.745 287.951 342.715 288.101 343.63C288.935 348.71 289.369 353.864 289.398 359.032C289.36 359.514 289.444 359.998 289.64 360.428C289.803 360.683 290.024 360.884 290.278 361.01C291.947 361.914 293.882 360.653 295.274 359.269C297.851 356.705 300.031 353.261 300.178 349.371C300.216 348.37 300.117 347.358 300.27 346.369C300.495 344.903 301.25 343.627 301.912 342.347C303.044 340.165 303.96 337.847 304.642 335.435C304.894 334.528 305.065 333.387 304.437 332.755C304.217 332.557 303.966 332.408 303.696 332.317L296.155 329.137C295.499 328.861 293.875 333.605 293.619 334.124C292.988 335.393 292.36 336.11 291.094 336.405C289.828 336.7 288.265 336.273 287.056 337.006C285.009 338.243 286.029 339.76 287.186 341.082Z" fill="#535070"/>
<path d="M275.555 344.013C275.415 343.696 275.22 343.415 274.982 343.187C274.633 342.934 274.236 342.781 273.825 342.741C272.391 342.461 270.692 342.279 269.699 343.493C268.771 344.629 268.931 346.479 268.156 347.759C267.911 348.147 267.576 348.496 267.365 348.923C267.102 349.576 266.984 350.293 267.023 351.01C266.982 352.984 266.941 354.966 267.064 356.936C267.163 358.588 267.406 360.322 268.317 361.617C269.777 363.696 272.412 363.995 274.746 364.127L276.64 364.239C277.161 364.308 277.689 364.253 278.19 364.076C278.5 363.914 278.778 363.682 279.008 363.395C279.238 363.108 279.415 362.771 279.527 362.405C280.514 359.62 278.954 356.622 277.992 353.829C276.883 350.614 277.08 347.05 275.555 344.013Z" fill="#535070"/>
<path d="M259.894 139.2C259.87 138.918 259.906 138.633 260 138.37C260.276 137.816 260.999 137.982 261.545 138.122C263.74 138.75 266.054 138.18 268.316 138.327C270.579 138.475 273.125 139.759 273.578 142.28C275.22 140.959 276.635 139.308 277.752 137.408C278.38 136.342 278.926 135.12 278.841 133.84C278.718 131.994 277.356 130.613 276.111 129.442L272.357 125.951C271.862 125.436 271.291 125.023 270.671 124.733C269.804 124.396 268.855 124.559 267.941 124.559C265.211 124.559 262.283 123.143 259.849 124.559C258.826 125.152 258.065 126.172 257.327 127.165L253.973 131.68C253.719 131.968 253.533 132.324 253.434 132.715C253.338 133.266 253.587 133.809 253.676 134.364C253.833 135.372 253.451 136.45 253.744 137.42C254.232 139.026 255.952 139.254 257.003 140.178C257.392 140.519 258.007 141.686 258.474 141.671C259.297 141.651 259.87 139.945 259.894 139.2Z" fill="#3F3D56"/>
<path d="M265.586 152.513C271.523 152.513 276.336 147.043 276.336 140.295C276.336 133.548 271.523 128.078 265.586 128.078C259.649 128.078 254.836 133.548 254.836 140.295C254.836 147.043 259.649 152.513 265.586 152.513Z" fill="#FFC0C6"/>
<path d="M268.106 167.032C267.741 165.848 267.056 164.826 266.147 164.113C265.239 163.401 264.155 163.035 263.051 163.068C262.735 163.137 262.408 163.089 262.116 162.933C261.951 162.789 261.819 162.603 261.731 162.39C261.079 161.052 260.554 159.641 260.164 158.177C259.994 157.53 259.758 156.766 259.182 156.599C258.717 156.463 258.243 156.805 257.933 157.22C257.657 157.665 257.359 158.091 257.038 158.496C255.673 159.869 253.285 158.616 251.855 159.876C251.619 160.082 251.425 160.346 251.172 160.536C250.926 160.706 250.661 160.836 250.384 160.923C247.608 161.95 244.887 163.158 242.234 164.542C243.19 171.073 244.166 177.729 246.405 183.838C247.469 186.746 248.674 189.597 249.527 192.595C251.418 199.239 251.5 206.348 251.524 213.333C251.524 218.112 251.524 222.991 250.159 227.513C249.851 228.537 249.476 229.553 249.391 230.616C249.305 231.679 249.585 232.881 250.353 233.517C250.798 233.85 251.307 234.054 251.838 234.11C254.196 234.498 256.571 233.792 258.891 233.18C265.113 231.543 271.46 230.604 277.791 229.689L288.404 228.138C289.165 228.077 289.91 227.857 290.602 227.49C292.544 226.284 292.728 222.964 291.52 220.854C290.943 219.841 290.127 219.012 289.639 217.941C289.151 216.871 289.114 215.366 289.95 214.625C291.656 213.112 291.144 210.308 291.226 207.857C291.454 201 291.423 194.148 291.134 187.301C291.047 185.881 291.027 184.457 291.073 183.035C291.192 180.622 291.718 178.26 292.243 175.914L295.468 161.486C294.625 159.973 293.011 159.011 291.486 158.577C289.96 158.143 288.366 158.015 286.862 157.483C283.79 156.397 281.033 153.644 277.815 153.9C277.571 153.904 277.33 153.971 277.112 154.093C276.388 154.563 276.501 155.75 276.456 156.696C276.354 158.794 274.996 160.543 273.501 161.773C272.006 163.002 270.293 163.894 268.918 165.295C268.679 165.499 268.483 165.761 268.342 166.061C268.202 166.361 268.121 166.693 268.106 167.032V167.032Z" fill="#3F3D56"/>
<path d="M225.512 180.718C224.8 181.245 224.044 181.688 223.253 182.041C222.503 182.378 221.701 182.646 221.086 183.236C220.782 183.535 220.527 183.894 220.332 184.294C219.968 185.028 219.785 185.859 219.8 186.7C219.815 187.542 220.028 188.364 220.418 189.08C220.808 189.795 221.359 190.379 222.015 190.77C222.671 191.161 223.408 191.345 224.147 191.303C225.134 191.245 226.065 190.791 226.97 190.345L234.553 186.594C235.836 185.962 237.221 185.225 237.829 183.79C237.898 183.656 237.925 183.498 237.904 183.344C237.845 183.175 237.733 183.037 237.59 182.956C235.881 181.693 234.386 180.09 233.177 178.225C232.867 177.744 232.495 176.611 232.044 176.32C230.44 175.308 226.799 179.772 225.512 180.718Z" fill="#FFC0C6"/>
<path d="M306.569 177.676L309.364 181.306C309.965 182.082 310.565 182.857 311.111 183.695C312.455 185.798 313.532 188.105 314.312 190.548C314.92 192.36 315.425 194.291 315.213 196.215C315.071 197.201 314.837 198.167 314.514 199.097C314.002 200.883 313.366 202.621 312.613 204.294C311.984 205.563 311.273 206.778 310.487 207.928C308.322 211.188 305.953 214.266 303.399 217.139C302.443 218.214 302.034 219.955 301.628 221.406C300.86 224.086 299.034 226.176 297.27 228.154C296.702 228.836 296.074 229.45 295.396 229.985C294.38 230.73 293.192 231.113 291.983 231.086C291.456 231.09 290.934 230.967 290.451 230.726C289.243 230.074 288.629 228.488 288.502 226.975C288.391 225.601 288.593 224.217 289.089 222.957C290.693 218.92 294.812 217.17 297.723 214.223C299.43 212.497 300.737 210.325 302.027 208.18C302.901 206.839 303.63 205.385 304.201 203.848C304.849 201.874 304.597 199.539 305.166 197.538C305.405 196.688 305.849 195.924 306.091 195.082C306.334 194.241 306.415 193.244 305.962 192.519C305.621 192.055 305.187 191.693 304.695 191.464C302.836 190.393 300.754 189.013 300.399 186.674C300.257 185.379 300.555 184.071 301.232 183.016C301.905 181.976 302.693 181.037 303.576 180.224C304.385 179.394 305.753 178.475 306.569 177.676Z" fill="#FFC0C6"/>
<path d="M223.717 185.785C223.225 184.653 222.608 183.497 221.611 182.935C221.126 182.697 220.604 182.574 220.075 182.574C219.547 182.574 219.025 182.697 218.54 182.935C217.574 183.409 216.669 184.03 215.851 184.781L213.441 186.801C212.895 187.209 212.412 187.716 212.011 188.302C211.629 189.014 211.376 189.805 211.267 190.63C210.926 192.518 210.65 194.461 210.889 196.374C211.271 199.476 212.909 202.16 214.711 204.518C215.837 205.984 217.229 207.466 218.942 207.532C219.683 207.559 220.505 207.226 220.813 206.462C220.92 206.158 220.976 205.834 220.98 205.507C221.164 202.063 220.079 198.701 218.816 195.563C218.475 194.71 218.106 193.825 218.134 192.891C218.123 192.732 218.159 192.574 218.236 192.441C218.344 192.312 218.489 192.231 218.646 192.212C220.376 191.824 223.358 193.352 224.57 191.169C225.355 189.726 224.276 187.069 223.717 185.785Z" fill="#FFC0C6"/>
<path d="M259.328 135.356C259.307 135.074 259.344 134.789 259.437 134.526C259.714 133.968 260.437 134.139 260.983 134.278C263.178 134.906 265.492 134.336 267.754 134.484C270.017 134.631 272.559 135.915 273.016 138.436C274.656 137.114 276.071 135.463 277.19 133.565C277.818 132.494 278.364 131.272 278.279 129.992C278.156 128.146 276.791 126.766 275.549 125.598L271.795 122.107C271.301 121.592 270.732 121.18 270.112 120.89C269.242 120.552 268.297 120.715 267.382 120.715C264.652 120.715 261.724 119.299 259.291 120.715C258.267 121.309 257.506 122.329 256.769 123.321L253.411 127.836C253.158 128.124 252.974 128.481 252.875 128.872C252.779 129.422 253.029 129.965 253.117 130.52C253.274 131.528 252.892 132.607 253.186 133.572C253.674 135.182 255.394 135.411 256.445 136.334C256.834 136.675 257.448 137.842 257.915 137.827C258.724 137.808 259.298 136.101 259.328 135.356Z" fill="#3F3D56"/>
<path d="M236.498 168.834C236.065 169.153 235.684 169.556 235.372 170.024C234.98 170.703 234.898 171.576 234.56 172.274C233.836 173.802 232.14 174.349 231.086 175.602C230.915 175.773 230.795 176.001 230.744 176.253C230.738 176.594 230.838 176.927 231.028 177.192L236.126 186.299C237.832 186.469 239.45 185.259 241.15 185.422C241.781 185.48 242.433 185.728 243.04 185.515C243.474 185.295 243.882 185.012 244.252 184.673C245.275 183.944 246.613 183.859 247.463 182.901C248.313 181.943 248.384 180.535 248.374 179.228C248.389 178.094 248.287 176.961 248.07 175.854C247.32 172.363 244.968 169.672 243.494 166.576C242.774 165.068 242.385 164.187 240.866 165.223C239.348 166.258 237.935 167.639 236.498 168.834Z" fill="#3F3D56"/>
<path d="M298.406 164.229C299.365 164.937 300.229 165.796 300.973 166.782C301.747 167.918 302.188 169.314 302.935 170.478C303.682 171.641 304.641 172.479 305.46 173.518C306.706 175.093 307.549 177.009 308.375 178.913C306.353 181.903 304.15 184.728 301.782 187.369C301.517 187.722 301.169 187.98 300.778 188.113C300.513 188.146 300.246 188.103 299.999 187.988C299.752 187.874 299.535 187.691 299.365 187.458C298.997 187.023 298.737 186.48 298.386 186.027C297.558 185.056 296.454 184.45 295.27 184.316C294.096 184.186 292.915 184.167 291.738 184.258C291.48 184.293 291.218 184.243 290.984 184.114C290.81 183.978 290.669 183.794 290.574 183.579C289.209 180.911 289.636 177.56 290.124 174.511L291.24 167.53C291.403 166.197 291.716 164.894 292.172 163.652C292.595 162.624 293.537 160.878 294.704 161.189C295.871 161.499 297.42 163.423 298.406 164.229Z" fill="#3F3D56"/>
<path d="M201.086 215.407L177.577 220.872L177.041 220.813L156.381 218.444V188.688L181.672 183.828L200.018 186.26L200.025 186.392V186.454L201.086 215.407Z" fill="#6C63FF"/>
<path opacity="0.1" d="M201.088 215.409L177.579 220.874L177.043 220.816V190.312L200.027 186.395L201.088 215.409Z" fill="black"/>
<path opacity="0.05" d="M200.025 186.454L200.018 186.462L177.041 190.309L156.381 188.688L181.672 183.828L200.018 186.26L200.025 186.392V186.454Z" fill="black"/>
<path d="M213.374 185.93L189.864 191.399L189.328 191.337L168.668 188.967V159.211L193.959 154.352L212.305 156.783L212.312 156.915V156.977L213.374 185.93Z" fill="#3F3D56"/>
<path opacity="0.1" d="M213.374 185.929L189.864 191.398L189.328 191.336V160.831L212.312 156.914L213.374 185.929Z" fill="black"/>
<path opacity="0.05" d="M212.312 156.977L212.305 156.985L189.328 160.833L168.668 159.211L193.959 154.352L212.305 156.783L212.312 156.915V156.977Z" fill="black"/>
</g>
</g>
<defs>
<filter id="filter0_d" x="36.1934" y="52.625" width="377.271" height="400.843" filterUnits="userSpaceOnUse" color-interpolation-filters="sRGB">
<feFlood flood-opacity="0" result="BackgroundImageFix"/>
<feColorMatrix in="SourceAlpha" type="matrix" values="0 0 0 0 0 0 0 0 0 0 0 0 0 0 0 0 0 0 127 0" result="hardAlpha"/>
<feOffset dy="4"/>
<feGaussianBlur stdDeviation="2"/>
<feComposite in2="hardAlpha" operator="out"/>
<feColorMatrix type="matrix" values="0 0 0 0 0 0 0 0 0 0 0 0 0 0 0 0 0 0 0.25 0"/>
<feBlend mode="normal" in2="BackgroundImageFix" result="effect1_dropShadow"/>
<feBlend mode="normal" in="SourceGraphic" in2="effect1_dropShadow" result="shape"/>
</filter>
<filter id="filter1_d" x="58.8008" y="96.6836" width="332.054" height="280.91" filterUnits="userSpaceOnUse" color-interpolation-filters="sRGB">
<feFlood flood-opacity="0" result="BackgroundImageFix"/>
<feColorMatrix in="SourceAlpha" type="matrix" values="0 0 0 0 0 0 0 0 0 0 0 0 0 0 0 0 0 0 127 0" result="hardAlpha"/>
<feOffset dy="4"/>
<feGaussianBlur stdDeviation="2"/>
<feComposite in2="hardAlpha" operator="out"/>
<feColorMatrix type="matrix" values="0 0 0 0 0 0 0 0 0 0 0 0 0 0 0 0 0 0 0.25 0"/>
<feBlend mode="normal" in2="BackgroundImageFix" result="effect1_dropShadow"/>
<feBlend mode="normal" in="SourceGraphic" in2="effect1_dropShadow" result="shape"/>
</filter>
<clipPath id="clip0">
<rect width="324.054" height="272.91" fill="white" transform="translate(62.8008 96.6836)"/>
</clipPath>
</defs>
</svg>
